Coordinates
version=1
nRows=10
nColumns=63
inDegrees=yes

Units are S.I. units (second, meters, Newtons, ...)
If the header above contains a line with 'inDegrees', this indicates whether rotational values are in degrees (yes) or radians (no).

endheader
time	pelvis_tilt	pelvis_list	pelvis_rotation	pelvis_tx	pelvis_ty	pelvis_tz	hip_flexion_r	hip_adduction_r	hip_rotation_r	knee_angle_r	knee_angle_r_beta	ankle_angle_r	subtalar_angle_r	mtp_angle_r	hip_flexion_l	hip_adduction_l	hip_rotation_l	knee_angle_l	knee_angle_l_beta	ankle_angle_l	subtalar_angle_l	mtp_angle_l	L5_S1_Flex_Ext	L5_S1_Lat_Bending	L5_S1_axial_rotation	L4_L5_Flex_Ext	L4_L5_Lat_Bending	L4_L5_axial_rotation	L3_L4_Flex_Ext	L3_L4_Lat_Bending	L3_L4_axial_rotation	L2_L3_Flex_Ext	L2_L3_Lat_Bending	L2_L3_axial_rotation	L1_L2_Flex_Ext	L1_L2_Lat_Bending	L1_L2_axial_rotation	L1_T12_Flex_Ext	L1_T12_Lat_Bending	L1_T12_axial_rotation	Abs_r3	Abs_r2	Abs_r1	Abs_t1	Abs_t2	neck_flexion	neck_bending	neck_rotation	arm_flex_r	arm_add_r	arm_rot_r	elbow_flex_r	pro_sup_r	wrist_flex_r	wrist_dev_r	arm_flex_l	arm_add_l	arm_rot_l	elbow_flex_l	pro_sup_l	wrist_flex_l	wrist_dev_l
11.283019	-1.039994	-3.132095	93.846953	0.187591	0.470401	1.009831	3.959610	0.739124	-10.959268	12.169587	0.212399	44.937194	16.110391	0.000000	2.068031	2.440344	-2.947721	9.808287	0.171187	42.311300	0.788665	0.000000	0.085329	0.283333	-0.557756	0.158464	0.376833	-0.592616	0.140187	0.688896	-0.592616	0.097522	0.688896	-0.488037	0.079236	0.577773	-0.453177	0.048757	0.438883	-0.418317	0.609495	3.205122	-3.102074	0.000000	0.000000	14.367192	-0.549897	8.807959	21.213643	4.880271	119.659790	19.961942	29.260206	43.117342	-8.463672	12.709345	-12.490526	50.613842	57.118627	72.646790	10.634500	14.545979
11.301887	-0.754256	-3.291980	93.791470	0.186751	0.469969	1.010134	4.217971	0.966755	-10.929654	12.222358	0.213320	44.970124	16.219306	0.000000	2.350053	2.162622	-3.253719	9.935253	0.173403	42.451589	0.963485	0.000000	0.096922	0.316249	-0.346946	0.179994	0.420612	-0.368630	0.159234	0.768929	-0.368630	0.110772	0.768929	-0.303578	0.090002	0.644896	-0.281893	0.055381	0.489870	-0.260209	0.692306	3.577478	-1.929608	0.000000	0.000000	15.177220	-0.949526	7.064907	19.344459	2.642199	107.849828	26.096224	38.181370	39.393262	-3.905309	14.019984	-12.025686	52.957300	57.299436	72.393327	9.847486	15.850311
11.320755	-0.474771	-3.430971	93.728681	0.185907	0.469545	1.010348	4.439156	1.194661	-10.851090	12.263153	0.214032	44.965505	16.276455	0.000000	2.615530	1.879668	-3.717131	10.070365	0.175761	42.628134	1.377894	0.000000	0.106197	0.346565	-0.151045	0.197218	0.460931	-0.160485	0.174470	0.842637	-0.160485	0.121372	0.842637	-0.132164	0.098614	0.706714	-0.122724	0.060681	0.536828	-0.113284	0.758551	3.920407	-0.840066	0.000000	0.000000	15.993995	-1.256384	5.294003	17.418260	0.246588	95.645756	32.320504	47.235737	35.011776	0.569962	15.147620	-11.548011	54.983075	57.310158	71.721281	8.855264	16.908543
11.339623	-0.203688	-3.557175	93.674144	0.185040	0.469098	1.010456	4.631624	1.412794	-10.798519	12.299802	0.214672	44.947561	16.349366	0.000000	2.868769	1.601719	-4.259337	10.213062	0.178252	42.831196	1.945447	0.000000	0.115246	0.374823	0.024997	0.214024	0.498514	0.026559	0.189338	0.911344	0.026559	0.131715	0.911344	0.021872	0.107018	0.764339	0.020310	0.065852	0.580601	0.018748	0.823192	4.240072	0.139025	0.000000	0.000000	16.803461	-1.459044	3.580777	15.502621	-2.194490	83.228290	38.406312	56.198850	30.598883	4.885175	16.076115	-11.086219	56.802490	57.231125	70.351506	7.371312	17.774125
11.358491	0.061555	-3.675014	93.611000	0.184182	0.468621	1.010471	4.805484	1.627985	-10.731856	12.336332	0.215310	44.916877	16.402772	0.000000	3.107500	1.330379	-4.850339	10.356766	0.180760	43.050599	2.591878	0.000000	0.124632	0.402066	0.179545	0.231455	0.534748	0.190766	0.204758	0.977584	0.190766	0.142442	0.977584	0.157102	0.115734	0.819894	0.145880	0.071215	0.622801	0.134658	0.890236	4.548255	0.998573	0.000000	0.000000	17.606579	-1.569875	1.970590	13.713502	-4.585198	71.201842	44.138940	64.744824	26.372163	8.928916	16.750148	-10.613530	58.174665	57.064115	69.068328	5.884932	18.491159
11.377358	0.307840	-3.785638	93.538815	0.183346	0.468121	1.010387	4.957476	1.824575	-10.671241	12.367409	0.215852	44.884200	16.468221	0.000000	3.313106	1.101726	-5.242290	10.468327	0.182707	43.228051	2.999830	0.000000	0.135195	0.427635	0.313926	0.251070	0.568755	0.333546	0.222111	1.039753	0.333546	0.154514	1.039753	0.274685	0.125542	0.872034	0.255065	0.077250	0.662407	0.235444	0.965682	4.837498	1.745962	0.000000	0.000000	18.394588	-1.611493	0.501112	12.126653	-6.824410	60.028938	49.318599	72.584730	22.564116	12.591378	17.210960	-10.160261	59.201875	56.829991	67.991953	4.508255	18.951105
11.396226	0.513023	-3.896180	93.457729	0.182614	0.467612	1.010236	5.095798	1.987394	-10.591549	12.388187	0.216215	44.854773	16.507748	0.000000	3.494767	0.916863	-5.632628	10.554751	0.184215	43.393383	3.398629	0.000000	0.147935	0.448730	0.427905	0.274730	0.596811	0.454649	0.243043	1.091042	0.454649	0.169075	1.091042	0.374417	0.137373	0.915050	0.347673	0.084530	0.695082	0.320929	1.056686	5.076121	2.379878	0.000000	0.000000	19.159463	-1.583379	-0.787738	10.804167	-8.793985	50.201014	53.755312	79.447785	19.322832	15.749184	17.483564	-9.761065	59.894267	56.563863	67.399244	3.388294	19.040428
11.415094	0.693254	-4.004139	93.372954	0.181979	0.467133	1.010061	5.225689	2.127666	-10.536834	12.405308	0.216513	44.832332	16.563104	0.000000	3.649559	0.762460	-5.982602	10.604507	0.185084	43.542511	3.741568	0.000000	0.162092	0.468516	0.516176	0.301020	0.623126	0.548437	0.266300	1.139149	0.548437	0.185254	1.139149	0.451654	0.150518	0.955398	0.419393	0.092619	0.725731	0.387132	1.157804	5.299945	2.870816	0.000000	0.000000	19.894100	-1.499792	-1.793661	9.810334	-10.410910	42.267147	57.284200	85.060329	16.784130	18.263987	17.570930	-9.411501	60.252848	56.266518	67.237178	2.561835	18.663058
11.433962	0.816185	-4.111089	93.305468	0.181495	0.466717	1.009881	5.339406	2.218835	-10.499496	12.402707	0.216468	44.817120	16.604937	0.000000	3.777801	0.667458	-6.273149	10.611474	0.185205	43.662627	4.027569	0.000000	0.177409	0.482657	0.575012	0.329466	0.641934	0.610950	0.291465	1.173532	0.610950	0.202761	1.173532	0.503135	0.164742	0.984234	0.467197	0.101372	0.747636	0.431259	1.267215	5.459913	3.198041	0.000000	0.000000	20.596803	-1.347430	-2.477178	9.201071	-11.585373	36.586192	59.724848	89.162022	15.088188	20.017571	17.500453	-9.166222	60.331783	55.987908	67.588280	2.047732	17.824852
11.452830	0.882093	-4.220131	93.258576	0.181184	0.466388	1.009768	5.450179	2.259985	-10.489402	12.391962	0.216281	44.802987	16.636205	0.000000	3.894820	0.630764	-6.489938	10.585938	0.184759	43.754091	4.232683	0.000000	0.192884	0.491199	0.601327	0.358205	0.653294	0.638910	0.316889	1.194301	0.638910	0.220447	1.194301	0.526161	0.179112	1.001653	0.488578	0.110214	0.760867	0.450995	1.377752	5.556539	3.344402	0.000000	0.000000	21.256460	-1.128216	-2.806909	9.030753	-12.239989	33.598481	60.907483	91.521104	14.376823	20.857326	17.303702	-9.037970	60.154704	55.725229	68.374951	1.889494	16.530623
